<mxfile host="app.diagrams.net" modified="2024-05-23T13:58:57.382Z" agent="Mozilla/5.0 (Windows NT 10.0; Win64; x64) AppleWebKit/537.36 (KHTML, like Gecko) Chrome/125.0.0.0 Safari/537.36" etag="EMFrkF0BIc14X2ZvY5dw" version="24.4.6" type="google">
  <diagram name="FE-UHI" id="Krvi3zgOJTbH_F1lKnKt">
    <mxGraphModel grid="1" page="1" gridSize="10" guides="1" tooltips="1" connect="1" arrows="1" fold="1" pageScale="1" pageWidth="3300" pageHeight="4681" math="0" shadow="0">
      <root>
        <mxCell id="k6mhYjpQpfvVJ8LvTSOb-0" />
        <mxCell id="k6mhYjpQpfvVJ8LvTSOb-1" parent="k6mhYjpQpfvVJ8LvTSOb-0" />
        <mxCell id="k6mhYjpQpfvVJ8LvTSOb-5" value="&lt;font color=&quot;#ff0000&quot;&gt;???&lt;/font&gt;" style="swimlane;html=1;childLayout=stackLayout;resizeParent=1;resizeParentMax=0;horizontal=0;startSize=20;horizontalStack=0;whiteSpace=wrap;" vertex="1" parent="k6mhYjpQpfvVJ8LvTSOb-1">
          <mxGeometry x="90" y="-4460" width="1920" height="2090" as="geometry">
            <mxRectangle x="99" y="-2240" width="40" height="50" as="alternateBounds" />
          </mxGeometry>
        </mxCell>
        <mxCell id="k6mhYjpQpfvVJ8LvTSOb-6" value="&lt;div&gt;3 Trees&lt;/div&gt;" style="swimlane;html=1;startSize=58;horizontal=0;" vertex="1" parent="k6mhYjpQpfvVJ8LvTSOb-5">
          <mxGeometry x="20" width="1900" height="600" as="geometry">
            <mxRectangle x="20" width="1133" height="30" as="alternateBounds" />
          </mxGeometry>
        </mxCell>
        <mxCell id="k6mhYjpQpfvVJ8LvTSOb-8" value="" style="points=[[0.145,0.145,0],[0.5,0,0],[0.855,0.145,0],[1,0.5,0],[0.855,0.855,0],[0.5,1,0],[0.145,0.855,0],[0,0.5,0]];shape=mxgraph.bpmn.event;html=1;verticalLabelPosition=bottom;labelBackgroundColor=#ffffff;verticalAlign=top;align=center;perimeter=ellipsePerimeter;outlineConnect=0;aspect=fixed;outline=standard;symbol=general;" vertex="1" parent="k6mhYjpQpfvVJ8LvTSOb-6">
          <mxGeometry x="110" y="33" width="34" height="34" as="geometry" />
        </mxCell>
        <mxCell id="k6mhYjpQpfvVJ8LvTSOb-15" style="edgeStyle=orthogonalEdgeStyle;rounded=0;orthogonalLoop=1;jettySize=auto;html=1;dashed=1;exitX=0.5;exitY=1;exitDx=0;exitDy=0;exitPerimeter=0;entryX=0.075;entryY=-0.04;entryDx=0;entryDy=0;entryPerimeter=0;" edge="1" parent="k6mhYjpQpfvVJ8LvTSOb-6" source="ciWnwU-5eP2VFK62MYWq-23" target="k6mhYjpQpfvVJ8LvTSOb-14">
          <mxGeometry relative="1" as="geometry">
            <mxPoint x="580" y="320" as="sourcePoint" />
            <mxPoint x="570" y="380.75" as="targetPoint" />
          </mxGeometry>
        </mxCell>
        <UserObject label="&lt;div style=&quot;&quot;&gt;&lt;div style=&quot;&quot;&gt;&lt;font face=&quot;Arial&quot;&gt;&lt;span style=&quot;font-size: 8px;&quot;&gt;trees as point vector data &lt;font color=&quot;#ff0000&quot;&gt;missing&lt;/font&gt;&lt;/span&gt;&lt;/font&gt;&lt;/div&gt;&lt;div style=&quot;font-size: 8px;&quot;&gt;&lt;font style=&quot;font-size: 8px;&quot; face=&quot;Arial&quot;&gt;&amp;nbsp;&lt;a href=&quot;https://usage.geocat.live/catalogue/srv/eng/catalog.search#/metadata/ddc4e931-db21-461a-a8a6-57f3e9667977&quot;&gt;link to dataset metadata&lt;/a&gt;&lt;/font&gt;&lt;/div&gt;&lt;/div&gt;" id="k6mhYjpQpfvVJ8LvTSOb-16">
          <mxCell style="shape=mxgraph.bpmn.data;labelPosition=center;verticalLabelPosition=bottom;align=center;verticalAlign=top;size=10;html=1;" vertex="1" parent="k6mhYjpQpfvVJ8LvTSOb-6">
            <mxGeometry x="820" y="230" width="30" height="37" as="geometry" />
          </mxCell>
        </UserObject>
        <UserObject label="&lt;div style=&quot;line-height: 100%;&quot;&gt;&lt;div style=&quot;line-height: 100%;&quot;&gt;&lt;span style=&quot;font-family: Arial; font-size: 8px;&quot;&gt;boolean map on buildings 0: no, 1: yes&lt;/span&gt;&lt;br&gt;&lt;/div&gt;&lt;div style=&quot;font-size: 8px; line-height: 100%;&quot;&gt;&lt;font style=&quot;font-size: 8px;&quot; face=&quot;Arial&quot;&gt;&amp;nbsp;&lt;a href=&quot;https://usage.geocat.live/&quot;&gt;link to dataset metadata&lt;/a&gt;&lt;/font&gt;&lt;/div&gt;&lt;/div&gt;" id="k6mhYjpQpfvVJ8LvTSOb-17">
          <mxCell style="shape=mxgraph.bpmn.data;labelPosition=center;verticalLabelPosition=bottom;align=center;verticalAlign=top;size=14;html=1;" vertex="1" parent="k6mhYjpQpfvVJ8LvTSOb-6">
            <mxGeometry x="653.5" y="508" width="26.5" height="38" as="geometry" />
          </mxCell>
        </UserObject>
        <mxCell id="k6mhYjpQpfvVJ8LvTSOb-18" style="edgeStyle=orthogonalEdgeStyle;rounded=0;orthogonalLoop=1;jettySize=auto;html=1;entryX=0;entryY=0;entryDx=7.5;entryDy=0;entryPerimeter=0;dashed=1;" edge="1" parent="k6mhYjpQpfvVJ8LvTSOb-6" source="k6mhYjpQpfvVJ8LvTSOb-14" target="k6mhYjpQpfvVJ8LvTSOb-17">
          <mxGeometry relative="1" as="geometry" />
        </mxCell>
        <UserObject label="&lt;div style=&quot;&quot;&gt;&lt;div style=&quot;&quot;&gt;&lt;font face=&quot;Arial&quot;&gt;&lt;span style=&quot;font-size: 8px;&quot;&gt;3D residential buildings&lt;/span&gt;&lt;/font&gt;&lt;/div&gt;&lt;div style=&quot;font-size: 8px;&quot;&gt;&lt;font style=&quot;font-size: 8px;&quot; face=&quot;Arial&quot;&gt;&amp;nbsp;&lt;a href=&quot;https://usage.geocat.live/catalogue/srv/eng/catalog.search#/metadata/ba1d5529-ae39-420b-a8e6-5331dd29e531&quot;&gt;link to dataset metadata&lt;/a&gt;&lt;/font&gt;&lt;/div&gt;&lt;/div&gt;" id="ciWnwU-5eP2VFK62MYWq-23">
          <mxCell style="shape=mxgraph.bpmn.data;labelPosition=center;verticalLabelPosition=bottom;align=center;verticalAlign=top;size=10;html=1;" vertex="1" parent="k6mhYjpQpfvVJ8LvTSOb-6">
            <mxGeometry x="470" y="230" width="30" height="37" as="geometry" />
          </mxCell>
        </UserObject>
        <mxCell id="k6mhYjpQpfvVJ8LvTSOb-14" value="&lt;h6 style=&quot;line-height: 100%;&quot;&gt;&lt;font face=&quot;Arial&quot;&gt;&lt;span style=&quot;font-size: 8px;&quot;&gt;&lt;span style=&quot;font-weight: 400;&quot;&gt;calculate the amount of trees visible from each building (H: 3 m). Test: is the amount &amp;gt;3 or not? 0: no, 1: yes&lt;br&gt;&lt;/span&gt;&lt;/span&gt;&lt;/font&gt;Determine visibility of trees from buildings&lt;/h6&gt;" style="points=[[0.25,0,0],[0.5,0,0],[0.75,0,0],[1,0.25,0],[1,0.5,0],[1,0.75,0],[0.75,1,0],[0.5,1,0],[0.25,1,0],[0,0.75,0],[0,0.5,0],[0,0.25,0]];shape=mxgraph.bpmn.task;whiteSpace=wrap;rectStyle=rounded;size=10;html=1;container=1;expand=0;collapsible=0;taskMarker=abstract;fillColor=#ff9b29;fontColor=#000000;strokeColor=#BD7000;" vertex="1" parent="k6mhYjpQpfvVJ8LvTSOb-6">
          <mxGeometry x="620" y="382" width="200" height="50" as="geometry" />
        </mxCell>
        <mxCell id="ciWnwU-5eP2VFK62MYWq-24" style="edgeStyle=orthogonalEdgeStyle;rounded=0;orthogonalLoop=1;jettySize=auto;html=1;dashed=1;entryX=0.85;entryY=0.16;entryDx=0;entryDy=0;entryPerimeter=0;exitX=0.5;exitY=1;exitDx=0;exitDy=0;exitPerimeter=0;" edge="1" parent="k6mhYjpQpfvVJ8LvTSOb-6" source="k6mhYjpQpfvVJ8LvTSOb-16" target="k6mhYjpQpfvVJ8LvTSOb-14">
          <mxGeometry relative="1" as="geometry">
            <mxPoint x="820" y="372" as="targetPoint" />
            <mxPoint x="790" y="330" as="sourcePoint" />
            <Array as="points">
              <mxPoint x="835" y="320" />
              <mxPoint x="790" y="320" />
            </Array>
          </mxGeometry>
        </mxCell>
        <mxCell id="ciWnwU-5eP2VFK62MYWq-32" value="&lt;h6 style=&quot;line-height: 100%;&quot;&gt;&lt;span style=&quot;font-weight: normal;&quot;&gt;extract tree canopies from Lidar data&lt;/span&gt;&lt;br&gt;&amp;nbsp;&lt;span style=&quot;font-weight: normal;&quot;&gt;&lt;a href=&quot;https://usage.geocat.live/catalogue/srv/eng/catalog.search#/metadata/96ac2ca4-7fa3-4523-935c-8d3982ab04c5&quot;&gt;Point cloud classification&lt;/a&gt;&lt;/span&gt;&lt;/h6&gt;" style="points=[[0.25,0,0],[0.5,0,0],[0.75,0,0],[1,0.25,0],[1,0.5,0],[1,0.75,0],[0.75,1,0],[0.5,1,0],[0.25,1,0],[0,0.75,0],[0,0.5,0],[0,0.25,0]];shape=mxgraph.bpmn.task;whiteSpace=wrap;rectStyle=rounded;size=10;html=1;container=1;expand=0;collapsible=0;taskMarker=abstract;fillColor=#ff9b29;fontColor=#000000;strokeColor=#BD7000;" vertex="1" parent="k6mhYjpQpfvVJ8LvTSOb-6">
          <mxGeometry x="500" y="150" width="200" height="50" as="geometry" />
        </mxCell>
        <UserObject label="&lt;div style=&quot;&quot;&gt;&lt;div style=&quot;&quot;&gt;&lt;font face=&quot;Arial&quot;&gt;&lt;span style=&quot;font-size: 8px;&quot;&gt;Aerial 3D point clouds&lt;/span&gt;&lt;/font&gt;&lt;/div&gt;&lt;div style=&quot;font-size: 8px;&quot;&gt;&lt;font style=&quot;font-size: 8px;&quot; face=&quot;Arial&quot;&gt;&amp;nbsp;&lt;a href=&quot;https://usage.geocat.live/catalogue/srv/eng/catalog.search#/metadata/ddc4e931-db21-461a-a8a6-57f3e9667977&quot;&gt;link to dataset metadata&lt;/a&gt;&lt;/font&gt;&lt;/div&gt;&lt;/div&gt;" id="ciWnwU-5eP2VFK62MYWq-33">
          <mxCell style="shape=mxgraph.bpmn.data;labelPosition=center;verticalLabelPosition=bottom;align=center;verticalAlign=top;size=10;html=1;" vertex="1" parent="k6mhYjpQpfvVJ8LvTSOb-6">
            <mxGeometry x="585" y="30" width="30" height="37" as="geometry" />
          </mxCell>
        </UserObject>
        <mxCell id="mnoR7cyunpkpfNXAe4Dq-1" value="daniela: DTM, DSM,&amp;nbsp;&lt;div&gt;3D&amp;nbsp; buildings, citygml, SHP, photogramm, 2022, all city extent&lt;/div&gt;" style="rounded=0;whiteSpace=wrap;html=1;fillColor=#d80073;fontColor=#ffffff;strokeColor=#A50040;" vertex="1" parent="k6mhYjpQpfvVJ8LvTSOb-6">
          <mxGeometry x="290" y="218.5" width="120" height="60" as="geometry" />
        </mxCell>
        <UserObject label="&lt;div style=&quot;&quot;&gt;&lt;div style=&quot;&quot;&gt;&lt;font face=&quot;Arial&quot;&gt;&lt;span style=&quot;font-size: 8px;&quot;&gt;Digital Terrain Model &lt;font color=&quot;#ff0000&quot;&gt;missing&lt;/font&gt;&lt;/span&gt;&lt;/font&gt;&lt;/div&gt;&lt;div style=&quot;font-size: 8px;&quot;&gt;&lt;font style=&quot;font-size: 8px;&quot; face=&quot;Arial&quot;&gt;&amp;nbsp;&lt;a href=&quot;https://usage.geocat.live/catalogue/srv/eng/catalog.search#/metadata/ddc4e931-db21-461a-a8a6-57f3e9667977&quot;&gt;link to dataset metadata&lt;/a&gt;&lt;/font&gt;&lt;/div&gt;&lt;/div&gt;" id="mnoR7cyunpkpfNXAe4Dq-3">
          <mxCell style="shape=mxgraph.bpmn.data;labelPosition=center;verticalLabelPosition=bottom;align=center;verticalAlign=top;size=10;html=1;" vertex="1" parent="k6mhYjpQpfvVJ8LvTSOb-6">
            <mxGeometry x="950" y="330" width="30" height="37" as="geometry" />
          </mxCell>
        </UserObject>
        <mxCell id="mnoR7cyunpkpfNXAe4Dq-4" style="edgeStyle=orthogonalEdgeStyle;rounded=0;orthogonalLoop=1;jettySize=auto;html=1;dashed=1;entryX=1;entryY=0.5;entryDx=0;entryDy=0;entryPerimeter=0;exitX=0.5;exitY=1;exitDx=0;exitDy=0;exitPerimeter=0;" edge="1" parent="k6mhYjpQpfvVJ8LvTSOb-6" source="mnoR7cyunpkpfNXAe4Dq-3" target="k6mhYjpQpfvVJ8LvTSOb-14">
          <mxGeometry relative="1" as="geometry">
            <mxPoint x="660" y="383" as="targetPoint" />
            <mxPoint x="690" y="318" as="sourcePoint" />
            <Array as="points">
              <mxPoint x="965" y="407" />
            </Array>
          </mxGeometry>
        </mxCell>
        <UserObject label="&lt;div style=&quot;&quot;&gt;&lt;div style=&quot;&quot;&gt;&lt;font face=&quot;Arial&quot;&gt;&lt;span style=&quot;font-size: 8px;&quot;&gt;Digital Surface Model &lt;font color=&quot;#ff0000&quot;&gt;missing&lt;/font&gt;&lt;/span&gt;&lt;/font&gt;&lt;/div&gt;&lt;div style=&quot;font-size: 8px;&quot;&gt;&lt;font face=&quot;Arial&quot; style=&quot;font-size: 8px;&quot;&gt;&amp;nbsp;&lt;a href=&quot;https://usage.geocat.live/catalogue/srv/eng/catalog.search#/metadata/ddc4e931-db21-461a-a8a6-57f3e9667977&quot;&gt;link to dataset metadata&lt;/a&gt;&lt;/font&gt;&lt;/div&gt;&lt;/div&gt;" id="mnoR7cyunpkpfNXAe4Dq-6">
          <mxCell style="shape=mxgraph.bpmn.data;labelPosition=center;verticalLabelPosition=bottom;align=center;verticalAlign=top;size=10;html=1;" vertex="1" parent="k6mhYjpQpfvVJ8LvTSOb-6">
            <mxGeometry x="720" y="220" width="30" height="37" as="geometry" />
          </mxCell>
        </UserObject>
        <mxCell id="mnoR7cyunpkpfNXAe4Dq-2" value="daniela: buildings that meet the criteria&lt;div&gt;binary building mask&lt;/div&gt;" style="rounded=0;whiteSpace=wrap;html=1;fillColor=#d80073;fontColor=#ffffff;strokeColor=#A50040;" vertex="1" parent="k6mhYjpQpfvVJ8LvTSOb-6">
          <mxGeometry x="460" y="460" width="120" height="60" as="geometry" />
        </mxCell>
        <mxCell id="EDfzUC_PJEwEIxlfBZfZ-0" style="edgeStyle=orthogonalEdgeStyle;rounded=0;orthogonalLoop=1;jettySize=auto;html=1;dashed=1;entryX=0.5;entryY=0;entryDx=0;entryDy=0;entryPerimeter=0;exitX=0.5;exitY=1;exitDx=0;exitDy=0;exitPerimeter=0;" edge="1" parent="k6mhYjpQpfvVJ8LvTSOb-6" source="mnoR7cyunpkpfNXAe4Dq-6" target="k6mhYjpQpfvVJ8LvTSOb-14">
          <mxGeometry relative="1" as="geometry">
            <mxPoint x="750" y="382" as="targetPoint" />
            <mxPoint x="755" y="276" as="sourcePoint" />
            <Array as="points">
              <mxPoint x="667" y="320" />
              <mxPoint x="720" y="320" />
            </Array>
          </mxGeometry>
        </mxCell>
        <mxCell id="EDfzUC_PJEwEIxlfBZfZ-4" style="edgeStyle=orthogonalEdgeStyle;rounded=0;orthogonalLoop=1;jettySize=auto;html=1;dashed=1;exitX=0.5;exitY=1;exitDx=0;exitDy=0;exitPerimeter=0;entryX=0.5;entryY=0;entryDx=0;entryDy=0;entryPerimeter=0;" edge="1" parent="k6mhYjpQpfvVJ8LvTSOb-6" source="ciWnwU-5eP2VFK62MYWq-33" target="ciWnwU-5eP2VFK62MYWq-32">
          <mxGeometry relative="1" as="geometry">
            <mxPoint x="555" y="267" as="sourcePoint" />
            <mxPoint x="645" y="360" as="targetPoint" />
          </mxGeometry>
        </mxCell>
        <mxCell id="EDfzUC_PJEwEIxlfBZfZ-5" style="edgeStyle=orthogonalEdgeStyle;rounded=0;orthogonalLoop=1;jettySize=auto;html=1;dashed=1;entryX=0;entryY=0;entryDx=10;entryDy=0;entryPerimeter=0;" edge="1" parent="k6mhYjpQpfvVJ8LvTSOb-6" target="k6mhYjpQpfvVJ8LvTSOb-16">
          <mxGeometry relative="1" as="geometry">
            <mxPoint x="768" y="318" as="targetPoint" />
            <mxPoint x="700" y="179" as="sourcePoint" />
            <Array as="points">
              <mxPoint x="830" y="179" />
            </Array>
          </mxGeometry>
        </mxCell>
        <mxCell id="EDfzUC_PJEwEIxlfBZfZ-27" style="edgeStyle=orthogonalEdgeStyle;rounded=0;orthogonalLoop=1;jettySize=auto;html=1;exitX=1;exitY=0.5;exitDx=0;exitDy=0;exitPerimeter=0;entryX=0;entryY=0.5;entryDx=0;entryDy=0;entryPerimeter=0;" edge="1" parent="k6mhYjpQpfvVJ8LvTSOb-6" source="k6mhYjpQpfvVJ8LvTSOb-8" target="ciWnwU-5eP2VFK62MYWq-32">
          <mxGeometry relative="1" as="geometry">
            <mxPoint x="490" y="170" as="targetPoint" />
            <Array as="points">
              <mxPoint x="164" y="50" />
              <mxPoint x="164" y="175" />
            </Array>
          </mxGeometry>
        </mxCell>
        <UserObject label="&lt;div style=&quot;&quot;&gt;&lt;div style=&quot;&quot;&gt;&lt;font face=&quot;Arial&quot;&gt;&lt;span style=&quot;font-size: 8px;&quot;&gt;Digital Terrain Model&lt;/span&gt;&lt;/font&gt;&lt;/div&gt;&lt;div style=&quot;font-size: 8px;&quot;&gt;&lt;font face=&quot;Arial&quot; style=&quot;font-size: 8px;&quot;&gt;&amp;nbsp;&lt;a href=&quot;https://usage.geocat.live/catalogue/srv/eng/catalog.search#/metadata/ba1d5529-ae39-420b-a8e6-5331dd29e531&quot;&gt;link to dataset metadata&lt;/a&gt;&lt;/font&gt;&lt;/div&gt;&lt;/div&gt;" id="mnoR7cyunpkpfNXAe4Dq-30">
          <mxCell style="shape=mxgraph.bpmn.data;labelPosition=center;verticalLabelPosition=bottom;align=center;verticalAlign=top;size=10;html=1;" vertex="1" parent="k6mhYjpQpfvVJ8LvTSOb-6">
            <mxGeometry x="590" y="220" width="30" height="37" as="geometry" />
          </mxCell>
        </UserObject>
        <mxCell id="mnoR7cyunpkpfNXAe4Dq-33" style="edgeStyle=orthogonalEdgeStyle;rounded=0;orthogonalLoop=1;jettySize=auto;html=1;dashed=1;exitX=0.5;exitY=1;exitDx=0;exitDy=0;exitPerimeter=0;entryX=0.25;entryY=0;entryDx=0;entryDy=0;entryPerimeter=0;" edge="1" parent="k6mhYjpQpfvVJ8LvTSOb-6" source="mnoR7cyunpkpfNXAe4Dq-30" target="k6mhYjpQpfvVJ8LvTSOb-14">
          <mxGeometry relative="1" as="geometry">
            <mxPoint x="840" y="240" as="targetPoint" />
            <mxPoint x="710" y="189" as="sourcePoint" />
            <Array as="points">
              <mxPoint x="605" y="300" />
              <mxPoint x="650" y="300" />
              <mxPoint x="650" y="382" />
            </Array>
          </mxGeometry>
        </mxCell>
        <mxCell id="k6mhYjpQpfvVJ8LvTSOb-54" value="&lt;div&gt;30% of tree canopy coverage per district&lt;br&gt;&lt;/div&gt;" style="swimlane;html=1;startSize=58;horizontal=0;whiteSpace=wrap;" vertex="1" parent="k6mhYjpQpfvVJ8LvTSOb-5">
          <mxGeometry x="20" y="600" width="1900" height="360" as="geometry" />
        </mxCell>
        <mxCell id="ciWnwU-5eP2VFK62MYWq-25" value="&lt;h6 style=&quot;line-height: 100%;&quot;&gt;&lt;span style=&quot;font-weight: normal;&quot;&gt;calculate the % of coverage of tree canopy in each district and check if the percentage is &amp;gt;30%&amp;nbsp;&lt;/span&gt;&lt;br&gt;&lt;span style=&quot;font-weight: normal;&quot;&gt;assign the district characteristics to all buildings in that &lt;/span&gt;Determine the % of canopy coverage in a district&lt;/h6&gt;" style="points=[[0.25,0,0],[0.5,0,0],[0.75,0,0],[1,0.25,0],[1,0.5,0],[1,0.75,0],[0.75,1,0],[0.5,1,0],[0.25,1,0],[0,0.75,0],[0,0.5,0],[0,0.25,0]];shape=mxgraph.bpmn.task;whiteSpace=wrap;rectStyle=rounded;size=10;html=1;container=1;expand=0;collapsible=0;taskMarker=abstract;fillColor=#ff9b29;fontColor=#000000;strokeColor=#BD7000;" vertex="1" parent="k6mhYjpQpfvVJ8LvTSOb-54">
          <mxGeometry x="675" y="192" width="200" height="50" as="geometry" />
        </mxCell>
        <mxCell id="ciWnwU-5eP2VFK62MYWq-63" style="edgeStyle=orthogonalEdgeStyle;rounded=0;orthogonalLoop=1;jettySize=auto;html=1;dashed=1;" edge="1" parent="ciWnwU-5eP2VFK62MYWq-25" source="ciWnwU-5eP2VFK62MYWq-25">
          <mxGeometry relative="1" as="geometry">
            <mxPoint x="10.480000000000018" y="52" as="sourcePoint" />
            <mxPoint x="105.48000000000002" y="82" as="targetPoint" />
          </mxGeometry>
        </mxCell>
        <UserObject label="&lt;div style=&quot;&quot;&gt;&lt;div style=&quot;&quot;&gt;&lt;font face=&quot;Arial&quot;&gt;&lt;span style=&quot;font-size: 8px;&quot;&gt;district polygons&lt;/span&gt;&lt;/font&gt;&lt;/div&gt;&lt;div style=&quot;font-size: 8px;&quot;&gt;&lt;font face=&quot;Arial&quot; style=&quot;font-size: 8px;&quot;&gt;&amp;nbsp;&lt;a href=&quot;https://usage.geocat.live/catalogue/srv/eng/catalog.search#/metadata/ddc4e931-db21-461a-a8a6-57f3e9667977&quot;&gt;link to dataset metadata&lt;/a&gt;&lt;/font&gt;&lt;/div&gt;&lt;/div&gt;" id="ciWnwU-5eP2VFK62MYWq-26">
          <mxCell style="shape=mxgraph.bpmn.data;labelPosition=center;verticalLabelPosition=bottom;align=center;verticalAlign=top;size=10;html=1;" vertex="1" parent="k6mhYjpQpfvVJ8LvTSOb-54">
            <mxGeometry x="680" y="60" width="30" height="37" as="geometry" />
          </mxCell>
        </UserObject>
        <UserObject label="&lt;div style=&quot;line-height: 100%;&quot;&gt;&lt;div style=&quot;line-height: 100%;&quot;&gt;&lt;span style=&quot;font-family: Arial; font-size: 8px;&quot;&gt;boolean map on buildings 0: no, 1: yes&lt;/span&gt;&lt;br&gt;&lt;/div&gt;&lt;div style=&quot;font-size: 8px; line-height: 100%;&quot;&gt;&lt;font face=&quot;Arial&quot; style=&quot;font-size: 8px;&quot;&gt;&amp;nbsp;&lt;a href=&quot;https://usage.geocat.live/&quot;&gt;link to dataset metadata&lt;/a&gt;&lt;/font&gt;&lt;/div&gt;&lt;/div&gt;" id="ciWnwU-5eP2VFK62MYWq-27">
          <mxCell style="shape=mxgraph.bpmn.data;labelPosition=center;verticalLabelPosition=bottom;align=center;verticalAlign=top;size=11;html=1;" vertex="1" parent="k6mhYjpQpfvVJ8LvTSOb-54">
            <mxGeometry x="770" y="280" width="30" height="32" as="geometry" />
          </mxCell>
        </UserObject>
        <UserObject label="&lt;div style=&quot;&quot;&gt;&lt;div style=&quot;&quot;&gt;&lt;font face=&quot;Arial&quot;&gt;&lt;span style=&quot;font-size: 8px;&quot;&gt;2D canopy extent&lt;/span&gt;&lt;/font&gt;&lt;/div&gt;&lt;div style=&quot;font-size: 8px;&quot;&gt;&lt;font face=&quot;Arial&quot; style=&quot;font-size: 8px;&quot;&gt;&amp;nbsp;&lt;a href=&quot;https://usage.geocat.live/catalogue/srv/eng/catalog.search#/metadata/ddc4e931-db21-461a-a8a6-57f3e9667977&quot;&gt;link to dataset metadata&lt;/a&gt;&lt;/font&gt;&lt;/div&gt;&lt;/div&gt;" id="ciWnwU-5eP2VFK62MYWq-28">
          <mxCell style="shape=mxgraph.bpmn.data;labelPosition=center;verticalLabelPosition=bottom;align=center;verticalAlign=top;size=10;html=1;" vertex="1" parent="k6mhYjpQpfvVJ8LvTSOb-54">
            <mxGeometry x="810" y="60" width="30" height="37" as="geometry" />
          </mxCell>
        </UserObject>
        <mxCell id="ciWnwU-5eP2VFK62MYWq-31" style="edgeStyle=orthogonalEdgeStyle;rounded=0;orthogonalLoop=1;jettySize=auto;html=1;dashed=1;exitX=0.5;exitY=1;exitDx=0;exitDy=0;exitPerimeter=0;" edge="1" parent="k6mhYjpQpfvVJ8LvTSOb-54" source="ciWnwU-5eP2VFK62MYWq-28">
          <mxGeometry relative="1" as="geometry">
            <mxPoint x="820" y="190" as="targetPoint" />
            <mxPoint x="875" y="90" as="sourcePoint" />
            <Array as="points">
              <mxPoint x="815" y="119" />
              <mxPoint x="812" y="119" />
            </Array>
          </mxGeometry>
        </mxCell>
        <mxCell id="mnoR7cyunpkpfNXAe4Dq-5" value="Kjersti: metadata for district polygons, 2D canopy extent, tool, output" style="rounded=0;whiteSpace=wrap;html=1;fillColor=#60a917;fontColor=#ffffff;strokeColor=#2D7600;" vertex="1" parent="k6mhYjpQpfvVJ8LvTSOb-54">
          <mxGeometry x="370" y="78.5" width="120" height="60" as="geometry" />
        </mxCell>
        <mxCell id="EDfzUC_PJEwEIxlfBZfZ-8" style="edgeStyle=orthogonalEdgeStyle;rounded=0;orthogonalLoop=1;jettySize=auto;html=1;dashed=1;exitX=0.5;exitY=1;exitDx=0;exitDy=0;exitPerimeter=0;" edge="1" parent="k6mhYjpQpfvVJ8LvTSOb-54">
          <mxGeometry relative="1" as="geometry">
            <mxPoint x="720" y="190" as="targetPoint" />
            <mxPoint x="694" y="97" as="sourcePoint" />
            <Array as="points">
              <mxPoint x="694" y="160" />
              <mxPoint x="720" y="160" />
              <mxPoint x="720" y="190" />
            </Array>
          </mxGeometry>
        </mxCell>
        <mxCell id="k6mhYjpQpfvVJ8LvTSOb-69" value="&lt;div&gt;300m to the next green or blue infrastructure&lt;br&gt;&lt;/div&gt;" style="swimlane;html=1;startSize=58;horizontal=0;whiteSpace=wrap;" vertex="1" parent="k6mhYjpQpfvVJ8LvTSOb-5">
          <mxGeometry x="20" y="960" width="1900" height="370" as="geometry" />
        </mxCell>
        <UserObject label="&lt;div style=&quot;line-height: 100%;&quot;&gt;&lt;div style=&quot;line-height: 100%;&quot;&gt;&lt;font face=&quot;Arial&quot;&gt;&lt;span style=&quot;font-size: 8px;&quot;&gt;boolean map on buildings 0: no, 1: yes, green and blue together&lt;/span&gt;&lt;/font&gt;&lt;/div&gt;&lt;div style=&quot;font-size: 8px; line-height: 100%;&quot;&gt;&lt;font face=&quot;Arial&quot; style=&quot;font-size: 8px;&quot;&gt;&amp;nbsp;&lt;a href=&quot;https://usage.geocat.live/&quot;&gt;link to dataset metadata&lt;/a&gt;&lt;/font&gt;&lt;/div&gt;&lt;/div&gt;" id="ciWnwU-5eP2VFK62MYWq-67">
          <mxCell style="shape=mxgraph.bpmn.data;labelPosition=center;verticalLabelPosition=bottom;align=center;verticalAlign=top;size=14;html=1;" vertex="1" parent="k6mhYjpQpfvVJ8LvTSOb-69">
            <mxGeometry x="420" y="270" width="26.5" height="38" as="geometry" />
          </mxCell>
        </UserObject>
        <mxCell id="ciWnwU-5eP2VFK62MYWq-68" style="edgeStyle=orthogonalEdgeStyle;rounded=0;orthogonalLoop=1;jettySize=auto;html=1;entryX=0;entryY=0;entryDx=7.5;entryDy=0;entryPerimeter=0;dashed=1;exitX=0.537;exitY=1.022;exitDx=0;exitDy=0;exitPerimeter=0;" edge="1" parent="k6mhYjpQpfvVJ8LvTSOb-69" source="ciWnwU-5eP2VFK62MYWq-71" target="ciWnwU-5eP2VFK62MYWq-67">
          <mxGeometry relative="1" as="geometry" />
        </mxCell>
        <UserObject label="&lt;div style=&quot;&quot;&gt;&lt;div style=&quot;&quot;&gt;&lt;font face=&quot;Arial&quot;&gt;&lt;span style=&quot;font-size: 8px;&quot;&gt;foot path network (vector data)&lt;/span&gt;&lt;/font&gt;&lt;/div&gt;&lt;div style=&quot;font-size: 8px;&quot;&gt;&lt;font face=&quot;Arial&quot; style=&quot;font-size: 8px;&quot;&gt;&amp;nbsp;&lt;a href=&quot;https://usage.geocat.live/catalogue/srv/eng/catalog.search#/metadata/ddc4e931-db21-461a-a8a6-57f3e9667977&quot;&gt;link to dataset metadata&lt;/a&gt;&lt;/font&gt;&lt;/div&gt;&lt;/div&gt;" id="ciWnwU-5eP2VFK62MYWq-69">
          <mxCell style="shape=mxgraph.bpmn.data;labelPosition=center;verticalLabelPosition=bottom;align=center;verticalAlign=top;size=10;html=1;" vertex="1" parent="k6mhYjpQpfvVJ8LvTSOb-69">
            <mxGeometry x="390" y="17" width="30" height="37" as="geometry" />
          </mxCell>
        </UserObject>
        <UserObject label="&lt;div style=&quot;&quot;&gt;&lt;div style=&quot;&quot;&gt;&lt;font face=&quot;Arial&quot;&gt;&lt;span style=&quot;font-size: 8px;&quot;&gt;parks and water (public accessible areas)&lt;/span&gt;&lt;/font&gt;&lt;/div&gt;&lt;div style=&quot;font-size: 8px;&quot;&gt;&lt;font style=&quot;font-size: 8px;&quot; face=&quot;Arial&quot;&gt;&amp;nbsp;&lt;a href=&quot;https://usage.geocat.live/catalogue/srv/eng/catalog.search#/metadata/ddc4e931-db21-461a-a8a6-57f3e9667977&quot;&gt;link to dataset metadata&lt;/a&gt;&lt;/font&gt;&lt;/div&gt;&lt;/div&gt;" id="ciWnwU-5eP2VFK62MYWq-70">
          <mxCell style="shape=mxgraph.bpmn.data;labelPosition=center;verticalLabelPosition=bottom;align=center;verticalAlign=top;size=10;html=1;" vertex="1" parent="k6mhYjpQpfvVJ8LvTSOb-69">
            <mxGeometry x="530" y="17" width="30" height="37" as="geometry" />
          </mxCell>
        </UserObject>
        <mxCell id="ciWnwU-5eP2VFK62MYWq-71" value="&lt;h6 style=&quot;line-height: 100%;&quot;&gt;&lt;font face=&quot;Arial&quot;&gt;&lt;span style=&quot;font-size: 8px;&quot;&gt;&lt;span style=&quot;font-weight: 400;&quot;&gt;calculate the distance between the address point and&amp;nbsp; all green/blue infrastructure. Is the distance &amp;lt;300m to any of the green/blue infrastructures?&lt;/span&gt;&lt;br&gt;Determine the distance to public green and blue infrastructures&lt;/span&gt;&lt;/font&gt;&lt;/h6&gt;" style="points=[[0.25,0,0],[0.5,0,0],[0.75,0,0],[1,0.25,0],[1,0.5,0],[1,0.75,0],[0.75,1,0],[0.5,1,0],[0.25,1,0],[0,0.75,0],[0,0.5,0],[0,0.25,0]];shape=mxgraph.bpmn.task;whiteSpace=wrap;rectStyle=rounded;size=10;html=1;container=1;expand=0;collapsible=0;taskMarker=abstract;fillColor=#ff9b29;fontColor=#000000;strokeColor=#BD7000;" vertex="1" parent="k6mhYjpQpfvVJ8LvTSOb-69">
          <mxGeometry x="320" y="140" width="200" height="50" as="geometry" />
        </mxCell>
        <mxCell id="ciWnwU-5eP2VFK62MYWq-73" style="edgeStyle=orthogonalEdgeStyle;rounded=0;orthogonalLoop=1;jettySize=auto;html=1;dashed=1;exitX=0.5;exitY=1;exitDx=0;exitDy=0;exitPerimeter=0;entryX=1.004;entryY=0.167;entryDx=0;entryDy=0;entryPerimeter=0;" edge="1" parent="k6mhYjpQpfvVJ8LvTSOb-69" source="ciWnwU-5eP2VFK62MYWq-70" target="ciWnwU-5eP2VFK62MYWq-71">
          <mxGeometry relative="1" as="geometry">
            <mxPoint x="540" y="150" as="targetPoint" />
            <mxPoint x="570" y="87" as="sourcePoint" />
            <Array as="points">
              <mxPoint x="545" y="148" />
              <mxPoint x="521" y="148" />
            </Array>
          </mxGeometry>
        </mxCell>
        <mxCell id="mnoR7cyunpkpfNXAe4Dq-7" value="Verena, metadata foot path network, metadata parks, metadata water, metadata tool, metadata output" style="rounded=0;whiteSpace=wrap;html=1;fillColor=#ffcd28;gradientColor=#ffa500;strokeColor=#d79b00;" vertex="1" parent="k6mhYjpQpfvVJ8LvTSOb-69">
          <mxGeometry x="110" y="110" width="140" height="90" as="geometry" />
        </mxCell>
        <mxCell id="EDfzUC_PJEwEIxlfBZfZ-9" style="edgeStyle=orthogonalEdgeStyle;rounded=0;orthogonalLoop=1;jettySize=auto;html=1;dashed=1;exitX=0.5;exitY=1;exitDx=0;exitDy=0;exitPerimeter=0;" edge="1" parent="k6mhYjpQpfvVJ8LvTSOb-69" source="ciWnwU-5eP2VFK62MYWq-69">
          <mxGeometry relative="1" as="geometry">
            <mxPoint x="405" y="140" as="targetPoint" />
            <mxPoint x="420" y="60" as="sourcePoint" />
            <Array as="points">
              <mxPoint x="405" y="140" />
            </Array>
          </mxGeometry>
        </mxCell>
        <mxCell id="EDfzUC_PJEwEIxlfBZfZ-35" value="Landnutzung 2019&lt;div&gt;Kategorien (green and blue in one file): Parkanlage&lt;br&gt;Erholungsfläche&lt;br&gt;Sportanlagen?&lt;br&gt;Waldfläche?&lt;/div&gt;&lt;div&gt;fließende Gewässer&lt;/div&gt;&lt;div&gt;stehende Gewässer&lt;/div&gt;" style="rounded=0;whiteSpace=wrap;html=1;" vertex="1" parent="k6mhYjpQpfvVJ8LvTSOb-69">
          <mxGeometry x="640" y="30" width="220" height="120" as="geometry" />
        </mxCell>
        <mxCell id="k6mhYjpQpfvVJ8LvTSOb-76" value="&lt;div&gt;commbine all criteria&lt;/div&gt;" style="swimlane;html=1;startSize=58;horizontal=0;whiteSpace=wrap;" vertex="1" parent="k6mhYjpQpfvVJ8LvTSOb-5">
          <mxGeometry x="20" y="1330" width="1900" height="360" as="geometry" />
        </mxCell>
        <mxCell id="EDfzUC_PJEwEIxlfBZfZ-16" value="" style="edgeStyle=orthogonalEdgeStyle;rounded=0;orthogonalLoop=1;jettySize=auto;html=1;dashed=1;" edge="1" parent="k6mhYjpQpfvVJ8LvTSOb-76" source="AlwzMYm-ZSlX3xYWYxc7-0" target="EDfzUC_PJEwEIxlfBZfZ-11">
          <mxGeometry relative="1" as="geometry" />
        </mxCell>
        <mxCell id="AlwzMYm-ZSlX3xYWYxc7-0" value="&lt;div style=&quot;line-height: 70%;&quot;&gt;&lt;div&gt;&lt;span style=&quot;background-color: initial; font-size: 8px; font-family: Arial;&quot;&gt;merge all output criteria.&amp;nbsp;&lt;br&gt;If there are 3 trees visible from the address point and&lt;br&gt;if there is a green/blue infrastructure reachable in 300m and&lt;br&gt;if the address point is within a district that has enough tree canopy&lt;br&gt;--&amp;gt; the address point should get a color depending on how many of the criterias are matched&lt;br&gt;&lt;/span&gt;3-30-300_Merge_criteria&lt;/div&gt;&lt;/div&gt;" style="points=[[0.25,0,0],[0.5,0,0],[0.75,0,0],[1,0.25,0],[1,0.5,0],[1,0.75,0],[0.75,1,0],[0.5,1,0],[0.25,1,0],[0,0.75,0],[0,0.5,0],[0,0.25,0]];shape=mxgraph.bpmn.task;whiteSpace=wrap;rectStyle=rounded;size=10;html=1;container=1;expand=0;collapsible=0;taskMarker=abstract;fillColor=#ff9b29;strokeColor=#d79b00;gradientColor=none;" vertex="1" parent="k6mhYjpQpfvVJ8LvTSOb-76">
          <mxGeometry x="1120" y="80" width="277" height="83.5" as="geometry" />
        </mxCell>
        <UserObject label="&lt;div style=&quot;line-height: 100%; font-size: 8px;&quot;&gt;&lt;div style=&quot;line-height: 100%;&quot;&gt;&lt;span style=&quot;text-wrap: wrap;&quot;&gt;output: 2D building map with &lt;br&gt;white: 1 criterion satisfied, &lt;br&gt;yellow: 2 criteria satisfied, &lt;br&gt;green: 3 criteria satisfied&lt;/span&gt;&lt;br&gt;&lt;/div&gt;&lt;div style=&quot;line-height: 100%;&quot;&gt;&lt;font style=&quot;font-size: 8px;&quot; face=&quot;Arial&quot;&gt;&amp;nbsp;&lt;a href=&quot;https://usage.geocat.live/&quot;&gt;link to dataset metadata&lt;/a&gt;&lt;/font&gt;&lt;/div&gt;&lt;/div&gt;" id="EDfzUC_PJEwEIxlfBZfZ-11">
          <mxCell style="shape=mxgraph.bpmn.data;labelPosition=center;verticalLabelPosition=bottom;align=center;verticalAlign=top;size=14;html=1;" vertex="1" parent="k6mhYjpQpfvVJ8LvTSOb-76">
            <mxGeometry x="1260" y="210" width="26.5" height="38" as="geometry" />
          </mxCell>
        </UserObject>
        <mxCell id="ciWnwU-5eP2VFK62MYWq-76" style="edgeStyle=orthogonalEdgeStyle;rounded=0;orthogonalLoop=1;jettySize=auto;html=1;entryX=0.138;entryY=-0.031;entryDx=0;entryDy=0;entryPerimeter=0;dashed=1;exitX=0;exitY=0;exitDx=26.5;exitDy=26;exitPerimeter=0;" edge="1" parent="k6mhYjpQpfvVJ8LvTSOb-5" source="ciWnwU-5eP2VFK62MYWq-67" target="AlwzMYm-ZSlX3xYWYxc7-0">
          <mxGeometry relative="1" as="geometry">
            <mxPoint x="560" y="1134" as="sourcePoint" />
            <mxPoint x="471" y="1075" as="targetPoint" />
            <Array as="points">
              <mxPoint x="467" y="1260" />
              <mxPoint x="1178" y="1260" />
            </Array>
          </mxGeometry>
        </mxCell>
        <mxCell id="EDfzUC_PJEwEIxlfBZfZ-3" style="edgeStyle=orthogonalEdgeStyle;rounded=0;orthogonalLoop=1;jettySize=auto;html=1;dashed=1;exitX=0.5;exitY=1;exitDx=0;exitDy=0;exitPerimeter=0;entryX=0.105;entryY=-0.06;entryDx=0;entryDy=0;entryPerimeter=0;" edge="1" parent="k6mhYjpQpfvVJ8LvTSOb-5" source="ciWnwU-5eP2VFK62MYWq-23" target="ciWnwU-5eP2VFK62MYWq-71">
          <mxGeometry relative="1" as="geometry">
            <mxPoint x="325" y="127" as="sourcePoint" />
            <mxPoint x="200" y="610" as="targetPoint" />
            <Array as="points">
              <mxPoint x="315" y="760" />
              <mxPoint x="361" y="760" />
            </Array>
          </mxGeometry>
        </mxCell>
        <mxCell id="ciWnwU-5eP2VFK62MYWq-74" style="edgeStyle=orthogonalEdgeStyle;rounded=0;orthogonalLoop=1;jettySize=auto;html=1;dashed=1;exitX=0;exitY=0;exitDx=26.5;exitDy=26;exitPerimeter=0;entryX=0.584;entryY=-0.039;entryDx=0;entryDy=0;entryPerimeter=0;" edge="1" parent="k6mhYjpQpfvVJ8LvTSOb-5" source="k6mhYjpQpfvVJ8LvTSOb-17" target="AlwzMYm-ZSlX3xYWYxc7-0">
          <mxGeometry relative="1" as="geometry">
            <mxPoint x="1302" y="1274" as="targetPoint" />
            <mxPoint x="1100" y="770" as="sourcePoint" />
            <Array as="points">
              <mxPoint x="1302" y="534" />
            </Array>
          </mxGeometry>
        </mxCell>
        <mxCell id="ciWnwU-5eP2VFK62MYWq-75" style="edgeStyle=orthogonalEdgeStyle;rounded=0;orthogonalLoop=1;jettySize=auto;html=1;dashed=1;exitX=0;exitY=0;exitDx=30;exitDy=21.5;exitPerimeter=0;entryX=0.43;entryY=-0.016;entryDx=0;entryDy=0;entryPerimeter=0;" edge="1" parent="k6mhYjpQpfvVJ8LvTSOb-5" source="ciWnwU-5eP2VFK62MYWq-27" target="AlwzMYm-ZSlX3xYWYxc7-0">
          <mxGeometry relative="1" as="geometry">
            <mxPoint x="1260" y="1290" as="targetPoint" />
            <mxPoint x="460" y="464" as="sourcePoint" />
            <Array as="points">
              <mxPoint x="1259" y="902" />
            </Array>
          </mxGeometry>
        </mxCell>
        <mxCell id="EDfzUC_PJEwEIxlfBZfZ-30" value="&lt;div&gt;presentation of output&lt;/div&gt;" style="swimlane;html=1;startSize=58;horizontal=0;whiteSpace=wrap;" vertex="1" parent="k6mhYjpQpfvVJ8LvTSOb-5">
          <mxGeometry x="20" y="1690" width="1900" height="400" as="geometry" />
        </mxCell>
        <mxCell id="EDfzUC_PJEwEIxlfBZfZ-17" value="" style="edgeStyle=orthogonalEdgeStyle;rounded=0;orthogonalLoop=1;jettySize=auto;html=1;dashed=1;" edge="1" parent="EDfzUC_PJEwEIxlfBZfZ-30" source="EDfzUC_PJEwEIxlfBZfZ-18" target="EDfzUC_PJEwEIxlfBZfZ-19">
          <mxGeometry relative="1" as="geometry" />
        </mxCell>
        <mxCell id="EDfzUC_PJEwEIxlfBZfZ-26" value="" style="edgeStyle=orthogonalEdgeStyle;rounded=0;orthogonalLoop=1;jettySize=auto;html=1;" edge="1" parent="EDfzUC_PJEwEIxlfBZfZ-30" source="EDfzUC_PJEwEIxlfBZfZ-18">
          <mxGeometry relative="1" as="geometry">
            <mxPoint x="1787.0000833335653" y="121.80000000000018" as="targetPoint" />
          </mxGeometry>
        </mxCell>
        <mxCell id="EDfzUC_PJEwEIxlfBZfZ-18" value="&lt;div style=&quot;line-height: 70%;&quot;&gt;&lt;div&gt;&lt;span style=&quot;background-color: initial; font-size: 8px; font-family: Arial;&quot;&gt;create a hexagon map for better interpretation of regions&lt;br&gt;&lt;/span&gt;3-30-300_hexagons&lt;/div&gt;&lt;/div&gt;" style="points=[[0.25,0,0],[0.5,0,0],[0.75,0,0],[1,0.25,0],[1,0.5,0],[1,0.75,0],[0.75,1,0],[0.5,1,0],[0.25,1,0],[0,0.75,0],[0,0.5,0],[0,0.25,0]];shape=mxgraph.bpmn.task;whiteSpace=wrap;rectStyle=rounded;size=10;html=1;container=1;expand=0;collapsible=0;taskMarker=abstract;fillColor=#ff9b29;strokeColor=#d79b00;gradientColor=none;" vertex="1" parent="EDfzUC_PJEwEIxlfBZfZ-30">
          <mxGeometry x="1397" y="80" width="277" height="83.5" as="geometry" />
        </mxCell>
        <UserObject label="&lt;div style=&quot;line-height: 100%; font-size: 8px;&quot;&gt;&lt;div style=&quot;line-height: 100%;&quot;&gt;&lt;span style=&quot;text-wrap: wrap;&quot;&gt;hexagon areas with color code:&amp;nbsp;red = 0 criteria;&amp;nbsp;&lt;/span&gt;&lt;span style=&quot;text-wrap: wrap; background-color: initial;&quot;&gt;orange = 1 criteria;&amp;nbsp;&lt;/span&gt;&lt;span style=&quot;text-wrap: wrap; background-color: initial;&quot;&gt;yellow = 2 criterias&lt;/span&gt;&lt;span style=&quot;background-color: initial; text-wrap: wrap;&quot;&gt;;&amp;nbsp;&lt;/span&gt;&lt;span style=&quot;background-color: initial; text-wrap: wrap;&quot;&gt;green = 3 criterias&lt;br&gt;&lt;/span&gt;&lt;span style=&quot;font-family: Arial;&quot;&gt;&amp;nbsp;&lt;/span&gt;&lt;a style=&quot;font-family: Arial;&quot; href=&quot;https://usage.geocat.live/&quot;&gt;link to dataset metadata&lt;/a&gt;&lt;span style=&quot;background-color: initial; text-wrap: wrap;&quot;&gt;&lt;br&gt;&lt;/span&gt;&lt;/div&gt;&lt;/div&gt;" id="EDfzUC_PJEwEIxlfBZfZ-19">
          <mxCell style="shape=mxgraph.bpmn.data;labelPosition=center;verticalLabelPosition=bottom;align=center;verticalAlign=top;size=14;html=1;" vertex="1" parent="EDfzUC_PJEwEIxlfBZfZ-30">
            <mxGeometry x="1537" y="210" width="26.5" height="38" as="geometry" />
          </mxCell>
        </UserObject>
        <mxCell id="k6mhYjpQpfvVJ8LvTSOb-79" value="" style="points=[[0.145,0.145,0],[0.5,0,0],[0.855,0.145,0],[1,0.5,0],[0.855,0.855,0],[0.5,1,0],[0.145,0.855,0],[0,0.5,0]];shape=mxgraph.bpmn.event;html=1;verticalLabelPosition=bottom;labelBackgroundColor=#ffffff;verticalAlign=top;align=center;perimeter=ellipsePerimeter;outlineConnect=0;aspect=fixed;outline=end;symbol=terminate2;" vertex="1" parent="EDfzUC_PJEwEIxlfBZfZ-30">
          <mxGeometry x="1790" y="106.75" width="30" height="30" as="geometry" />
        </mxCell>
        <mxCell id="EDfzUC_PJEwEIxlfBZfZ-20" value="" style="edgeStyle=orthogonalEdgeStyle;rounded=0;orthogonalLoop=1;jettySize=auto;html=1;dashed=1;entryX=0.5;entryY=0;entryDx=0;entryDy=0;entryPerimeter=0;exitX=0;exitY=0;exitDx=26.5;exitDy=26;exitPerimeter=0;" edge="1" parent="k6mhYjpQpfvVJ8LvTSOb-5" source="EDfzUC_PJEwEIxlfBZfZ-11" target="EDfzUC_PJEwEIxlfBZfZ-18">
          <mxGeometry relative="1" as="geometry">
            <mxPoint x="1310" y="1449" as="sourcePoint" />
            <mxPoint x="1303" y="1440" as="targetPoint" />
            <Array as="points">
              <mxPoint x="1556" y="1566" />
            </Array>
          </mxGeometry>
        </mxCell>
      </root>
    </mxGraphModel>
  </diagram>
</mxfile>
